<svg width="235" height="29" viewBox="0 0 235 29" fill="none" xmlns="http://www.w3.org/2000/svg">
<g filter="url(#filter0_d_26_130)">
<rect x="3.9938" y="2.06378" width="185" height="18" rx="1" transform="rotate(-0.0395113 3.9938 2.06378)" fill="white"/>
<rect x="192" y="2" width="18" height="18" rx="1" fill="white"/>
<rect x="213" y="2" width="18" height="18" rx="1" fill="white"/>
<path d="M196.533 16.25L195.542 15.2L199.508 11L195.542 6.8L196.533 5.75L200.5 9.95L204.467 5.75L205.458 6.8L201.492 11L205.458 15.2L204.467 16.25L200.5 12.05L196.533 16.25Z" fill="black"/>
<path d="M226.883 17.75L222.421 13.025C222.067 13.325 221.659 13.5625 221.199 13.7375C220.739 13.9125 220.249 14 219.729 14C218.442 14 217.353 13.5281 216.462 12.5844C215.571 11.6406 215.125 10.4875 215.125 9.125C215.125 7.7625 215.571 6.60938 216.462 5.66563C217.353 4.72188 218.442 4.25 219.729 4.25C221.016 4.25 222.105 4.72188 222.996 5.66563C223.888 6.60938 224.333 7.7625 224.333 9.125C224.333 9.675 224.251 10.1938 224.085 10.6813C223.92 11.1688 223.696 11.6 223.412 11.975L227.875 16.7L226.883 17.75ZM219.729 12.5C220.615 12.5 221.367 12.1719 221.987 11.5156C222.607 10.8594 222.917 10.0625 222.917 9.125C222.917 8.1875 222.607 7.39063 221.987 6.73438C221.367 6.07813 220.615 5.75 219.729 5.75C218.844 5.75 218.091 6.07813 217.471 6.73438C216.852 7.39063 216.542 8.1875 216.542 9.125C216.542 10.0625 216.852 10.8594 217.471 11.5156C218.091 12.1719 218.844 12.5 219.729 12.5Z" fill="black"/>
</g>
<defs>
<filter id="filter0_d_26_130" x="-1" y="0" width="239" height="30" filterUnits="userSpaceOnUse" color-interpolation-filters="sRGB">
<feFlood flood-opacity="0" result="BackgroundImageFix"/>
<feColorMatrix in="SourceAlpha" type="matrix" values="0 0 0 0 0 0 0 0 0 0 0 0 0 0 0 0 0 0 127 0" result="hardAlpha"/>
<feOffset dy="4"/>
<feGaussianBlur stdDeviation="2"/>
<feComposite in2="hardAlpha" operator="out"/>
<feColorMatrix type="matrix" values="0 0 0 0 0 0 0 0 0 0 0 0 0 0 0 0 0 0 0.25 0"/>
<feBlend mode="normal" in2="BackgroundImageFix" result="effect1_dropShadow_26_130"/>
<feBlend mode="normal" in="SourceGraphic" in2="effect1_dropShadow_26_130" result="shape"/>
</filter>
</defs>
</svg>
