<svg width="13" height="14" viewBox="0 0 13 14" fill="none" xmlns="http://www.w3.org/2000/svg">
<path d="M11.8833 13.75L7.42083 9.025C7.06667 9.325 6.65938 9.5625 6.19896 9.7375C5.73854 9.9125 5.24861 10 4.72917 10C3.44236 10 2.3533 9.52812 1.46198 8.58437C0.57066 7.64062 0.125 6.4875 0.125 5.125C0.125 3.7625 0.57066 2.60937 1.46198 1.66563C2.3533 0.721875 3.44236 0.25 4.72917 0.25C6.01597 0.25 7.10503 0.721875 7.99635 1.66563C8.88767 2.60937 9.33333 3.7625 9.33333 5.125C9.33333 5.675 9.25069 6.19375 9.08542 6.68125C8.92014 7.16875 8.69583 7.6 8.4125 7.975L12.875 12.7L11.8833 13.75ZM4.72917 8.5C5.61458 8.5 6.36719 8.17188 6.98698 7.51563C7.60677 6.85938 7.91667 6.0625 7.91667 5.125C7.91667 4.1875 7.60677 3.39062 6.98698 2.73437C6.36719 2.07812 5.61458 1.75 4.72917 1.75C3.84375 1.75 3.09115 2.07812 2.47135 2.73437C1.85156 3.39062 1.54167 4.1875 1.54167 5.125C1.54167 6.0625 1.85156 6.85938 2.47135 7.51563C3.09115 8.17188 3.84375 8.5 4.72917 8.5Z" fill="black"/>
</svg>
